<?xml version="1.0" standalone="no"?><!DOCTYPE svg PUBLIC "-//W3C//DTD SVG 1.1//EN" "http://www.w3.org/Graphics/SVG/1.1/DTD/svg11.dtd"><svg t="1769059527755" class="icon" viewBox="0 0 1024 1024" version="1.1" xmlns="http://www.w3.org/2000/svg" p-id="5668" xmlns:xlink="http://www.w3.org/1999/xlink" width="200" height="200"><path d="M498.688 547.584c-12.458667 0-31.146667 0-43.605333-6.229333L49.834667 404.224a81.066667 81.066667 0 0 1 0-149.589333L448.853333 117.504c31.146667-12.458667 62.293333-12.458667 93.525334 0l398.933333 137.130667c37.376 12.458667 56.064 43.605333 56.064 74.752a81.066667 81.066667 0 0 1-49.834667 74.837333L542.378667 541.354667c-12.544 6.229333-31.232 6.229333-43.690667 6.229333z m0-374.016c-6.229333 0-18.688 0-24.917333 6.229333L74.837333 316.928c-12.458667 0-12.458667 6.229333-12.458666 12.458667 0 6.314667 0 12.544 12.458666 12.544l398.933334 137.130666c18.773333 6.229333 31.146667 6.229333 49.834666 0l399.018667-137.130666c12.458667 0 12.458667-6.229333 12.458667-12.544 0-6.229333 0-12.458667-12.458667-12.458667L523.605333 179.797333c-6.229333-6.229333-18.688-6.229333-24.917333-6.229333z" fill="#707070" p-id="5669"></path><path d="M704.426667 890.453333H292.949333c-74.752 0-137.130667-62.293333-137.130666-137.130666V422.912c0-18.688 12.458667-31.146667 31.232-31.146667 18.688 0 31.146667 12.458667 31.146666 31.146667v330.410667c0 43.605333 31.146667 74.837333 74.752 74.837333h417.706667c37.376 0 74.837333-37.461333 74.837333-74.837333V422.912c0-18.688 12.458667-31.146667 31.146667-31.146667s31.146667 12.458667 31.146667 31.146667v330.410667c-6.229333 74.837333-68.608 137.130667-143.36 137.130666z m230.656-31.146666c-18.773333 0-31.146667-12.458667-31.146667-31.146667V454.144c0-18.773333 12.458667-31.232 31.146667-31.232s31.146667 12.458667 31.146666 31.232v374.016c0 18.688-12.458667 31.146667-31.146666 31.146667z" fill="#707070" p-id="5670"></path></svg>