<?xml version="1.0" standalone="no"?><!DOCTYPE svg PUBLIC "-//W3C//DTD SVG 1.1//EN" "http://www.w3.org/Graphics/SVG/1.1/DTD/svg11.dtd"><svg t="1768978432999" class="icon" viewBox="0 0 1024 1024" version="1.1" xmlns="http://www.w3.org/2000/svg" p-id="5940" xmlns:xlink="http://www.w3.org/1999/xlink" width="200" height="200"><path d="M734.050282 259.922844c-19.959587-51.596122-70.600965-52.034097-71.054289-52.034097L449.826985 207.888747c-0.542352 0-57.039087 0.437975-71.056336 52.034097L182.084035 259.922844c-38.540781 0-69.77311 28.122501-69.77311 67.385736l0 417.721777c0 39.263236 31.233352 71.080895 69.77311 71.080895l659.827837 0c38.541805 0 69.777203-31.816636 69.777203-71.080895L911.689075 327.308581c0-39.263236-32.515554-67.385736-71.057359-67.385736L734.050282 259.922844 734.050282 259.922844 734.050282 259.922844 734.050282 259.922844zM163.972539 330.399989c0-10.184967 7.994068-18.443048 17.885346-18.443048l232.43991 0c0 0 3.359514-20.107967 17.763572-33.603329 14.406105-13.495362 35.529191-18.430768 35.529191-18.430768l181.827185 0c0 0 20.780279 3.131317 35.527145 18.430768 14.746866 15.301498 17.763572 33.603329 17.763572 33.603329l139.607618 0c9.781784 0 17.711384 8.247848 17.711384 18.443048l0 414.68972c0 10.187013-7.77815 18.443048-17.823947 18.443048L181.795463 763.532757c-9.843182 0-17.822924-8.247848-17.822924-18.443048L163.972539 330.399989 163.972539 330.399989zM584.602551 712.956871c-94.460372 0-177.12714-78.502935-177.12714-175.321004 0-96.836489 82.665745-175.321004 177.12714-175.321004 94.440929 0 170.066327 75.940576 170.066327 174.862563C754.668879 636.08304 679.043481 712.956871 584.602551 712.956871L584.602551 712.956871zM582.904886 413.667437c-67.078745 0-125.260865 55.742559-125.260865 124.509758s58.182121 123.568317 125.260865 123.568317c67.074651 0 120.155591-52.02898 120.155591-123.187647S649.979538 413.667437 582.904886 413.667437L582.904886 413.667437zM302.56606 470.240921c-29.036313 0-52.559053-23.962761-52.559053-53.516868 0-29.581736 23.52274-53.54245 52.559053-53.54245 29.010731 0 52.53347 23.960715 52.53347 53.54245C355.099531 446.279183 331.576791 470.240921 302.56606 470.240921L302.56606 470.240921z" p-id="5941" fill="#8a8a8a"></path></svg>